<?xml version="1.0" encoding="UTF-8" standalone="no"?><!DOCTYPE svg PUBLIC "-//W3C//DTD SVG 1.1//EN" "http://www.w3.org/Graphics/SVG/1.1/DTD/svg11.dtd"><svg width="250" height="300" viewBox="0 0 1042 1250" version="1.1" xmlns="http://www.w3.org/2000/svg" xmlns:xlink="http://www.w3.org/1999/xlink" xml:space="preserve" xmlns:serif="http://www.serif.com/" style="fill-rule:evenodd;clip-rule:evenodd;stroke-miterlimit:10;"><g transform="matrix(4.16667,0,0,4.16667,0,0)"><g id="b0b13752-6925-4b6e-96a7-f19d1fb7a60d"><g id="e4b99704-89c8-4057-8949-d957e220f68e"><g id="a9ba4a08-261b-4c39-9c09-08573f9ce610"><path d="M76.25,95.84c-3,3 -13.54,-28.75 4.52,-49.94c-70.23,30.27 -94.49,135.91 -73.45,184.54c6,16.14 21.72,67.49 136.43,69.53c159.66,2.83 92,-198.08 92,-198.08c-25.58,56.5 -55.18,-1.51 -24.58,-101.89c-32.59,21.19 -81.24,37.83 -134.92,95.84Z" style="fill:#ee3a39;"/><path d="M233.4,189.11c-10.65,-13.47 -32.11,-48.73 -39.05,-56.62c-2,-2.12 -11.5,-1.73 -11.5,-1.75c0,-0.02 -2.26,4.28 -3.07,4.29c-0.827,-0.05 -1.629,-0.308 -2.33,-0.75c-3.18,-1.78 -7,-6.09 -7,-6.11c0,-0.02 -0.11,0 -0.28,0c-4,-0.14 -50,-6.74 -60.4,-5c-6.25,6.45 -47.07,60.39 -58,77.06c-1.51,2.52 7,45.4 8.53,46.9c2,2 35.62,23.72 35.62,23.72c0,0 0.36,11.2 2.06,15c5.558,1.22 11.185,2.098 16.85,2.63c3.08,0.23 5.28,0.16 6.37,-0.23c0.169,-0.048 0.328,-0.126 0.47,-0.23c1.83,-1.3 3.46,-3.61 5.08,-6.2c0.007,-0.019 0.007,-0.041 0,-0.06c2.45,-4.94 6.05,-11.05 9,-11.35c10.16,4.49 11.83,19.79 11.83,19.79c0,0 15.84,-2.1 22.8,-2.06c1.38,-0.24 2.74,-0.49 4.1,-0.75c1.378,-1.708 2.606,-3.531 3.67,-5.45c0.051,-0.081 0.098,-0.164 0.14,-0.25c1.72,-3 3.29,-6.23 4.52,-8.54c0.049,-0.07 0.092,-0.144 0.13,-0.22c0.4,-0.73 0.75,-1.36 1.06,-1.85c0.144,-0.232 0.327,-0.439 0.54,-0.61c1.24,-1.67 2.43,-2.67 3.47,-2.42c3.51,0.51 3.52,13.7 3.52,13.7c2.488,-0.837 4.916,-1.839 7.27,-3c0.895,-0.48 1.613,-1.234 2.05,-2.15c1.18,-3.48 2.38,-6.94 2.38,-6.94c8.58,-7.5 16.667,-15.087 24.26,-22.76c1.776,-1.72 2.921,-3.99 3.25,-6.44c2.72,-13.5 4.797,-27.077 6.23,-40.73c0.088,-3.848 -1.176,-7.607 -3.57,-10.62Zm-80.75,50c-8.233,3.811 -16.812,6.825 -25.62,9c-3.078,0.848 -6.234,1.384 -9.42,1.6l-0.29,0c-4.904,0.334 -9.831,-0.08 -14.61,-1.23c-0.57,-0.14 -1.13,-0.28 -1.69,-0.44c-10.69,-3.04 -15.11,-16.04 -12.97,-29.8c0.011,-0.022 0.011,-0.048 0,-0.07c0.21,-1.36 0.49,-2.74 0.83,-4.12l0,-0.05c1.213,-4.855 3.191,-9.487 5.86,-13.72c5.72,-9.05 11.17,-15.41 16.25,-19.57c5,-4.67 16.78,-11.59 42.59,-4.63c10.53,6.05 12.54,31.26 12.54,41.87c0.07,8.53 -7.76,18.57 -13.47,21.14l0,0.02Zm71.63,-10.5c-5.43,11.26 -18.25,15.66 -27,14.35l-0.77,-0.12l-0.14,0l-0.52,-0.11c-0.173,-0.033 -0.343,-0.076 -0.51,-0.13l-0.58,-0.16l-0.07,0c-0.2,-0.06 -0.39,-0.13 -0.57,-0.2c-0.18,-0.07 -0.51,-0.2 -0.76,-0.31c-0.25,-0.11 -0.45,-0.2 -0.68,-0.31l-0.45,-0.26c-5.93,-3.24 -10,-10.73 -9.49,-19.77l0,-0.07c0.172,-3.054 0.802,-6.064 1.87,-8.93c1.703,-4.873 3.929,-9.547 6.64,-13.94c0.09,-0.14 0.18,-0.28 0.29,-0.42c0.987,-1.532 2.112,-2.971 3.36,-4.3l0.15,-0.15c0.678,-0.699 1.403,-1.351 2.17,-1.95c0.056,-0.037 0.109,-0.077 0.16,-0.12l0.46,-0.32c0.852,-0.616 1.78,-1.12 2.76,-1.5c4.62,-2 10.54,-2.26 15.18,1.74c12.73,9.8 12.51,29.37 8.5,36.96l0,0.02Z" style="fill:#fff;"/><path d="M153.59,221.89c-3.44,14.28 -14.2,22.83 -26.56,26.24c-3.078,0.848 -6.234,1.384 -9.42,1.6l-0.29,0c-4.904,0.334 -9.831,-0.08 -14.61,-1.23c-0.57,-0.14 -1.13,-0.28 -1.69,-0.44c-10.69,-3.06 -15.11,-16.06 -12.97,-29.82c0.011,-0.022 0.011,-0.048 0,-0.07c0.21,-1.36 0.49,-2.74 0.83,-4.12l0,-0.05c1.213,-4.855 3.191,-9.487 5.86,-13.72c5.72,-9.05 11.17,-15.41 16.25,-19.57c29.19,-23.88 46.92,23.29 42.6,41.18Z" style="fill:#1c252d;fill-rule:nonzero;stroke:#1c252d;stroke-width:0.28px;"/><path d="M215.64,232.31c-5.89,8.36 -12.58,11.33 -18.37,10.63l-0.77,-0.12l-0.14,0l-0.52,-0.11c-0.173,-0.033 -0.343,-0.076 -0.51,-0.13l-0.58,-0.16l-0.07,0c-0.2,-0.06 -0.39,-0.13 -0.57,-0.2c-0.18,-0.07 -0.51,-0.2 -0.76,-0.31c-0.25,-0.11 -0.45,-0.2 -0.68,-0.31l-0.45,-0.26c-5.93,-3.24 -10,-10.73 -9.49,-19.77l0,-0.07c0.172,-3.054 0.802,-6.064 1.87,-8.93c1.703,-4.873 3.929,-9.547 6.64,-13.94c0.09,-0.14 0.18,-0.28 0.29,-0.42c0.987,-1.532 2.112,-2.971 3.36,-4.3l0.15,-0.15c0.678,-0.699 1.403,-1.351 2.17,-1.95c0.056,-0.037 0.109,-0.077 0.16,-0.12l0.46,-0.32c0.852,-0.616 1.78,-1.12 2.76,-1.5c6.92,-2.61 13.17,3.08 16.73,11.79c3.84,9.15 4.03,22.55 -1.68,30.65Z" style="fill:#1d252d;fill-rule:nonzero;stroke:#1c252d;stroke-width:0.28px;"/><path d="M187.52,282.3c0,0 -0.4,-13.71 -2.89,-11.84c1.24,-1.67 2.43,-2.67 3.47,-2.42c3.51,0.51 3.52,13.7 3.52,13.7l-4.1,0.56Z" style="fill:#96989a;"/><path d="M141.79,289.89c-1.4,-4.32 -7.44,-18.06 -8.74,-17.84c0.743,-0.818 1.716,-1.393 2.79,-1.65c10.16,4.49 11.83,19.79 11.83,19.79c0,0 -3.67,0.47 -5.88,-0.3Z" style="fill:#96989a;"/><path d="M224.28,228.59c-5.43,11.26 -18.25,15.66 -27,14.35c5.8,0.7 12.49,-2.27 18.38,-10.64c5.71,-8.09 5.51,-21.5 1.73,-30.74c-3.56,-8.71 -9.82,-14.4 -16.73,-11.79c4.62,-2 10.53,-2.26 15.17,1.74c12.68,9.92 12.46,29.49 8.45,37.08Z" style="fill:#96989a;"/><path d="M166.19,217.9c0,8.58 -7.83,18.63 -13.54,21.19c-8.236,3.805 -16.814,6.819 -25.62,9c12.36,-3.41 23.12,-12 26.56,-26.24c4.32,-17.88 -13.4,-65.06 -42.53,-41.22c5,-4.67 16.78,-11.59 42.59,-4.63c10.53,6.09 12.54,31.31 12.54,41.9Z" style="fill:#96989a;"/><path d="M96,270.87c0,0 0.37,11.19 2.07,15c-1.75,-0.37 -3.56,-0.78 -5.42,-1.21c-3.64,-0.67 -4.82,-14.69 -4.82,-14.95c0,-0.26 -30.31,-14.11 -49.83,-41.02c-5.84,-7.94 8.8,-54.13 11.34,-56.69c20.36,-17.92 58.47,-48.07 59.35,-48.57c0.347,-0.102 0.702,-0.179 1.06,-0.23c-6.25,6.44 -47.07,60.38 -57.95,77.05c-1.51,2.52 7,45.39 8.52,46.91c2.03,2.01 35.68,23.71 35.68,23.71Z" style="fill:#96989a;"/></g></g></g></g></svg>